<svg id="visual" viewBox="0 0 900 600" width="900" height="600" xmlns="http://www.w3.org/2000/svg" xmlns:xlink="http://www.w3.org/1999/xlink" version="1.1"><rect x="0" y="0" width="900" height="600" fill="#ffffff"></rect><path d="M0 390L21.5 405.7C43 421.3 86 452.7 128.8 465.5C171.7 478.3 214.3 472.7 257.2 460.7C300 448.7 343 430.3 385.8 436.7C428.7 443 471.3 474 514.2 492.3C557 510.7 600 516.3 642.8 499.3C685.7 482.3 728.3 442.7 771.2 426C814 409.3 857 415.7 878.5 418.8L900 422L900 601L878.5 601C857 601 814 601 771.2 601C728.3 601 685.7 601 642.8 601C600 601 557 601 514.2 601C471.3 601 428.7 601 385.8 601C343 601 300 601 257.2 601C214.3 601 171.7 601 128.8 601C86 601 43 601 21.5 601L0 601Z" fill="#D7CEB2" stroke-linecap="round" stroke-linejoin="miter"></path></svg>